<svg width="58" height="28" viewBox="0 0 58 28" fill="none" xmlns="http://www.w3.org/2000/svg">
<rect width="58" height="28" rx="5" fill="#151515"/>
<path d="M16.7649 7.98491C16.6946 7.91469 16.5993 7.87524 16.4999 7.87524C16.4005 7.87524 16.3052 7.91469 16.2349 7.98491L12.7349 11.4849C12.6825 11.5374 12.6469 11.6041 12.6324 11.6768C12.618 11.7495 12.6254 11.8249 12.6538 11.8934C12.6821 11.9619 12.7301 12.0204 12.7917 12.0616C12.8534 12.1028 12.9258 12.1248 12.9999 12.1249H19.9999C20.074 12.1248 20.1465 12.1028 20.2081 12.0616C20.2697 12.0204 20.3177 11.9619 20.3461 11.8934C20.3744 11.8249 20.3818 11.7495 20.3674 11.6768C20.353 11.6041 20.3173 11.5374 20.2649 11.4849L16.7649 7.98491Z" fill="#CF0000"/>
<path d="M12.9999 15.875C12.9258 15.8751 12.8534 15.8971 12.7917 15.9383C12.7301 15.9795 12.6821 16.0381 12.6538 16.1065C12.6254 16.175 12.618 16.2504 12.6324 16.3231C12.6469 16.3958 12.6825 16.4626 12.7349 16.515L16.2349 20.015C16.3052 20.0852 16.4005 20.1247 16.4999 20.1247C16.5993 20.1247 16.6946 20.0852 16.7649 20.015L20.2649 16.515C20.3173 16.4626 20.353 16.3958 20.3674 16.3231C20.3818 16.2504 20.3744 16.175 20.3461 16.1065C20.3177 16.0381 20.2697 15.9795 20.2081 15.9383C20.1465 15.8971 20.074 15.8751 19.9999 15.875H12.9999Z" fill="#7F3333" fill-opacity="0.7"/>
<path d="M33.9867 21.366L32.4747 19.924V16.48L33.9867 15.108V21.366ZM33.9447 8.36V14.618L32.4327 13.26V9.802L33.9447 8.36ZM38.478 21.982L39.92 20.47H43.378L44.736 21.982H38.478ZM38.058 15.108L39.57 16.564V19.994L38.058 21.366V15.108ZM45.184 21.366L43.672 19.924V16.48L45.184 15.108V21.366ZM38.464 7.758H44.722L43.336 9.27H39.906L38.464 7.758ZM38.016 14.618V8.36L39.528 9.718V13.19L38.016 14.618ZM45.142 8.36V14.618L43.63 13.26V9.802L45.142 8.36Z" fill="#CF0000"/>
</svg>
