<svg width="19" height="22" viewBox="0 0 19 22" fill="none" xmlns="http://www.w3.org/2000/svg">
<path d="M3.17188 0.640625V3.35938H12.8281V0.640625H3.17188ZM5.99844 1.25H7.49844L6.74844 2.75L5.99844 1.25ZM9.5 1.25L10.25 2.75H8.75L9.5 1.25ZM0.921875 5.42188V21.8281H7.57812V5.42188H0.921875ZM8.42188 5.42188V21.8281H15.0781V5.42188H8.42188ZM16.5312 12.0312V15.9688H18.9688V12.0312H16.5312ZM17.75 13.25C17.9489 13.25 18.1397 13.329 18.2803 13.4697C18.421 13.6103 18.5 13.8011 18.5 14C18.5 14.1989 18.421 14.3897 18.2803 14.5303C18.1397 14.671 17.9489 14.75 17.75 14.75C17.5511 14.75 17.3603 14.671 17.2197 14.5303C17.079 14.3897 17 14.1989 17 14C17 13.8011 17.079 13.6103 17.2197 13.4697C17.3603 13.329 17.5511 13.25 17.75 13.25Z" fill="#1780F5"/>
</svg>
