<svg width="20" height="12" viewBox="0 0 20 12" fill="none" xmlns="http://www.w3.org/2000/svg">
<path d="M18.3333 0.583374H7.5C6.58333 0.583374 5.83333 1.33337 5.83333 2.25004V9.75004C5.83333 10.1921 6.00893 10.616 6.32149 10.9286C6.63405 11.2411 7.05797 11.4167 7.5 11.4167H18.3333C19.2583 11.4167 20 10.675 20 9.75004V2.25004C20 1.80801 19.8244 1.38409 19.5118 1.07153C19.1993 0.758969 18.7754 0.583374 18.3333 0.583374ZM18.3333 3.64171L12.9167 6.41671L7.5 3.64171V2.25004L12.9167 5.00837L18.3333 2.25004V3.64171ZM4.16667 9.75004C4.16667 9.89171 4.19167 10.025 4.20833 10.1667H0.833333C0.373333 10.1667 0 9.79171 0 9.33337C0 8.87504 0.373333 8.50004 0.833333 8.50004H4.16667V9.75004ZM2.5 1.83337H4.20833C4.19167 1.97504 4.16667 2.10837 4.16667 2.25004V3.50004H2.5C2.04167 3.50004 1.66667 3.12504 1.66667 2.66671C1.66667 2.20837 2.04167 1.83337 2.5 1.83337ZM0.833333 6.00004C0.833333 5.54171 1.20833 5.16671 1.66667 5.16671H4.16667V6.83337H1.66667C1.20833 6.83337 0.833333 6.45837 0.833333 6.00004Z" fill="white"/>
</svg>
