<svg width="122" height="49" viewBox="0 0 122 49" fill="none" xmlns="http://www.w3.org/2000/svg">
<g clip-path="url(#clip0_557_794)">
<path d="M29.008 32.888H32.248C32.248 34.688 33.616 35.768 35.848 35.768C38.224 35.768 39.592 34.796 39.592 33.176C39.592 31.988 39.016 31.268 37.18 30.8L34.084 30.08C30.952 29.324 29.476 27.776 29.476 25.184C29.476 21.944 32.212 19.892 36.1 19.892C39.952 19.892 42.472 22.052 42.544 25.4H39.304C39.232 23.636 38.044 22.52 35.992 22.52C33.868 22.52 32.68 23.456 32.68 25.076C32.68 26.264 33.544 27.056 35.272 27.488L38.368 28.244C41.356 28.964 42.832 30.332 42.832 32.96C42.832 36.308 39.952 38.432 35.776 38.432C31.636 38.432 29.008 36.236 29.008 32.888ZM51.7327 38.432C47.9527 38.432 45.7207 36.308 45.7207 33.104C45.7207 29.864 48.1327 27.848 52.2727 27.524L57.8167 27.092V26.588C57.8167 23.636 56.0527 22.592 53.6767 22.592C50.8327 22.592 49.2127 23.852 49.2127 25.976H46.2607C46.2607 22.304 49.2847 19.892 53.8207 19.892C58.1767 19.892 61.1287 22.196 61.1287 26.948V38H58.2487L57.8887 35.156C56.9887 37.172 54.5767 38.432 51.7327 38.432ZM52.7047 35.804C55.9087 35.804 57.8527 33.716 57.8527 30.404V29.468L53.3527 29.828C50.3647 30.116 49.1407 31.268 49.1407 32.996C49.1407 34.868 50.5087 35.804 52.7047 35.804ZM63.8377 20.396H66.4297V17.588C66.4297 13.268 68.8057 11.504 72.0097 11.504C72.6577 11.504 73.4137 11.54 74.0977 11.648V14.564H72.5857C70.3897 14.564 69.8137 15.68 69.8137 17.588V20.396H73.9897V23.24H69.8137V38H66.4297V23.24H63.8377V20.396ZM84.2042 38.432C79.0202 38.432 75.4562 34.688 75.4562 29.216C75.4562 23.708 78.9482 19.892 84.0602 19.892C89.0642 19.892 92.3402 23.348 92.3402 28.568V29.828L78.7322 29.864C78.9842 33.572 80.9282 35.624 84.2762 35.624C86.9042 35.624 88.6322 34.544 89.2082 32.528H92.3762C91.5122 36.308 88.5602 38.432 84.2042 38.432ZM84.0602 22.736C81.1082 22.736 79.2362 24.5 78.8042 27.596H88.9562C88.9562 24.68 87.0482 22.736 84.0602 22.736Z" fill="url(#paint0_linear_557_794)"/>
</g>
<defs>
<linearGradient id="paint0_linear_557_794" x1="28" y1="24.5" x2="94" y2="24.5" gradientUnits="userSpaceOnUse">
<stop stop-color="#85BF43"/>
<stop offset="1" stop-color="#1F6AFC"/>
</linearGradient>
<clipPath id="clip0_557_794">
<rect width="122" height="49" fill="white"/>
</clipPath>
</defs>
</svg>
