<svg width="162" height="294" viewBox="0 0 162 294" fill="none" xmlns="http://www.w3.org/2000/svg">
<rect x="0.5" y="0.5" width="161" height="293" rx="4.5" stroke="#9747FF" stroke-dasharray="10 5"/>
<g clip-path="url(#clip0_557_795)">
<path d="M51.008 139.888H54.248C54.248 141.688 55.616 142.768 57.848 142.768C60.224 142.768 61.592 141.796 61.592 140.176C61.592 138.988 61.016 138.268 59.18 137.8L56.084 137.08C52.952 136.324 51.476 134.776 51.476 132.184C51.476 128.944 54.212 126.892 58.1 126.892C61.952 126.892 64.472 129.052 64.544 132.4H61.304C61.232 130.636 60.044 129.52 57.992 129.52C55.868 129.52 54.68 130.456 54.68 132.076C54.68 133.264 55.544 134.056 57.272 134.488L60.368 135.244C63.356 135.964 64.832 137.332 64.832 139.96C64.832 143.308 61.952 145.432 57.776 145.432C53.636 145.432 51.008 143.236 51.008 139.888ZM73.7327 145.432C69.9527 145.432 67.7207 143.308 67.7207 140.104C67.7207 136.864 70.1327 134.848 74.2727 134.524L79.8167 134.092V133.588C79.8167 130.636 78.0527 129.592 75.6767 129.592C72.8327 129.592 71.2127 130.852 71.2127 132.976H68.2607C68.2607 129.304 71.2847 126.892 75.8207 126.892C80.1767 126.892 83.1287 129.196 83.1287 133.948V145H80.2487L79.8887 142.156C78.9887 144.172 76.5767 145.432 73.7327 145.432ZM74.7047 142.804C77.9087 142.804 79.8527 140.716 79.8527 137.404V136.468L75.3527 136.828C72.3647 137.116 71.1407 138.268 71.1407 139.996C71.1407 141.868 72.5087 142.804 74.7047 142.804ZM85.8377 127.396H88.4297V124.588C88.4297 120.268 90.8057 118.504 94.0097 118.504C94.6577 118.504 95.4137 118.54 96.0977 118.648V121.564H94.5857C92.3897 121.564 91.8137 122.68 91.8137 124.588V127.396H95.9897V130.24H91.8137V145H88.4297V130.24H85.8377V127.396ZM106.204 145.432C101.02 145.432 97.4562 141.688 97.4562 136.216C97.4562 130.708 100.948 126.892 106.06 126.892C111.064 126.892 114.34 130.348 114.34 135.568V136.828L100.732 136.864C100.984 140.572 102.928 142.624 106.276 142.624C108.904 142.624 110.632 141.544 111.208 139.528H114.376C113.512 143.308 110.56 145.432 106.204 145.432ZM106.06 129.736C103.108 129.736 101.236 131.5 100.804 134.596H110.956C110.956 131.68 109.048 129.736 106.06 129.736Z" fill="url(#paint0_linear_557_795)"/>
</g>
<g clip-path="url(#clip1_557_795)">
<path d="M21.008 52.888H24.248C24.248 54.688 25.616 55.768 27.848 55.768C30.224 55.768 31.592 54.796 31.592 53.176C31.592 51.988 31.016 51.268 29.18 50.8L26.084 50.08C22.952 49.324 21.476 47.776 21.476 45.184C21.476 41.944 24.212 39.892 28.1 39.892C31.952 39.892 34.472 42.052 34.544 45.4H31.304C31.232 43.636 30.044 42.52 27.992 42.52C25.868 42.52 24.68 43.456 24.68 45.076C24.68 46.264 25.544 47.056 27.272 47.488L30.368 48.244C33.356 48.964 34.832 50.332 34.832 52.96C34.832 56.308 31.952 58.432 27.776 58.432C23.636 58.432 21.008 56.236 21.008 52.888ZM41.9687 58H38.5847V40.396H41.6087L41.9327 42.7C42.8327 41.044 44.7047 39.892 47.1887 39.892C49.9247 39.892 51.8687 41.26 52.7687 43.456C53.5967 41.26 55.7207 39.892 58.4567 39.892C62.4887 39.892 64.9367 42.412 64.9367 46.48V58H61.6247V47.308C61.6247 44.536 60.0767 42.952 57.7007 42.952C55.1447 42.952 53.4527 44.752 53.4527 47.56V58H50.1047V47.272C50.1047 44.5 48.5927 42.988 46.2167 42.988C43.6607 42.988 41.9687 44.752 41.9687 47.56V58ZM68.4757 49.18C68.4757 43.744 72.3637 39.928 77.6557 39.928C82.9117 39.928 86.7997 43.744 86.7997 49.18C86.7997 54.616 82.9117 58.432 77.6557 58.432C72.3637 58.432 68.4757 54.616 68.4757 49.18ZM71.8957 49.18C71.8957 52.852 74.2357 55.408 77.6557 55.408C81.0397 55.408 83.4157 52.852 83.4157 49.18C83.4157 45.508 81.0397 42.952 77.6557 42.952C74.2357 42.952 71.8957 45.508 71.8957 49.18ZM89.3937 49.18C89.3937 43.744 93.2817 39.928 98.5737 39.928C103.83 39.928 107.718 43.744 107.718 49.18C107.718 54.616 103.83 58.432 98.5737 58.432C93.2817 58.432 89.3937 54.616 89.3937 49.18ZM92.8137 49.18C92.8137 52.852 95.1537 55.408 98.5737 55.408C101.958 55.408 104.334 52.852 104.334 49.18C104.334 45.508 101.958 42.952 98.5737 42.952C95.1537 42.952 92.8137 45.508 92.8137 49.18ZM116.256 58H112.872V43.24H109.416V40.396H112.872V34.888H116.256V40.396H119.712V43.24H116.256V58ZM126.133 57.964H122.749V31.504H126.133V43.096C127.249 41.188 129.373 39.892 132.109 39.892C136.609 39.892 138.769 42.736 138.769 47.236V58H135.385V47.992C135.385 44.428 133.693 42.988 131.173 42.988C127.897 42.988 126.133 45.364 126.133 48.388V57.964Z" fill="url(#paint1_linear_557_795)"/>
</g>
<g clip-path="url(#clip2_557_795)">
<path d="M47.008 252.888H50.248C50.248 254.688 51.616 255.768 53.848 255.768C56.224 255.768 57.592 254.796 57.592 253.176C57.592 251.988 57.016 251.268 55.18 250.8L52.084 250.08C48.952 249.324 47.476 247.776 47.476 245.184C47.476 241.944 50.212 239.892 54.1 239.892C57.952 239.892 60.472 242.052 60.544 245.4H57.304C57.232 243.636 56.044 242.52 53.992 242.52C51.868 242.52 50.68 243.456 50.68 245.076C50.68 246.264 51.544 247.056 53.272 247.488L56.368 248.244C59.356 248.964 60.832 250.332 60.832 252.96C60.832 256.308 57.952 258.432 53.776 258.432C49.636 258.432 47.008 256.236 47.008 252.888ZM67.9428 258L62.1828 240.396H65.6748L68.5908 249.54C68.9868 250.836 69.3468 252.168 69.6708 253.716C69.9588 252.168 70.4268 250.692 70.8228 249.54L73.7748 240.396H77.2308L80.1468 249.54C80.4348 250.404 81.0108 252.456 81.2988 253.716C81.5868 252.312 81.9108 251.088 82.4148 249.54L85.3668 240.396H88.8948L82.8828 258H79.6788L76.6188 248.568C76.0428 246.804 75.6828 245.436 75.5028 244.464C75.3228 245.328 74.9988 246.48 74.3508 248.604L71.2908 258H67.9428ZM93.4517 236.22C92.2277 236.22 91.2197 235.212 91.2197 233.988C91.2197 232.728 92.2277 231.756 93.4517 231.756C94.6757 231.756 95.6837 232.728 95.6837 233.988C95.6837 235.212 94.6757 236.22 93.4517 236.22ZM91.7957 258V240.396H95.1797V258H91.7957ZM98.2205 240.396H100.813V237.588C100.813 233.268 103.153 231.504 106.213 231.504C106.861 231.504 107.653 231.54 108.301 231.648V234.564H106.789C104.737 234.564 104.197 235.68 104.197 237.588V240.396H112.441V234.888H115.825V240.396H119.281V243.24H115.825V258H112.441V243.24H104.197V258H100.813V243.24H98.2205V240.396Z" fill="url(#paint2_linear_557_795)"/>
</g>
<defs>
<linearGradient id="paint0_linear_557_795" x1="50" y1="131.5" x2="116" y2="131.5" gradientUnits="userSpaceOnUse">
<stop stop-color="#85BF43"/>
<stop offset="1" stop-color="#1F6AFC"/>
</linearGradient>
<linearGradient id="paint1_linear_557_795" x1="20" y1="44.5" x2="142" y2="44.5" gradientUnits="userSpaceOnUse">
<stop stop-color="#85BF43"/>
<stop offset="1" stop-color="#1F6AFC"/>
</linearGradient>
<linearGradient id="paint2_linear_557_795" x1="46" y1="244.5" x2="120" y2="244.5" gradientUnits="userSpaceOnUse">
<stop stop-color="#85BF43"/>
<stop offset="1" stop-color="#1F6AFC"/>
</linearGradient>
<clipPath id="clip0_557_795">
<rect width="122" height="49" fill="white" transform="translate(22 107)"/>
</clipPath>
<clipPath id="clip1_557_795">
<rect width="122" height="49" fill="white" transform="translate(20 20)"/>
</clipPath>
<clipPath id="clip2_557_795">
<rect width="122" height="49" fill="white" transform="translate(22 220)"/>
</clipPath>
</defs>
</svg>
