<svg width="122" height="49" viewBox="0 0 122 49" fill="none" xmlns="http://www.w3.org/2000/svg">
<g clip-path="url(#clip0_557_792)">
<path d="M25.008 32.888H28.248C28.248 34.688 29.616 35.768 31.848 35.768C34.224 35.768 35.592 34.796 35.592 33.176C35.592 31.988 35.016 31.268 33.18 30.8L30.084 30.08C26.952 29.324 25.476 27.776 25.476 25.184C25.476 21.944 28.212 19.892 32.1 19.892C35.952 19.892 38.472 22.052 38.544 25.4H35.304C35.232 23.636 34.044 22.52 31.992 22.52C29.868 22.52 28.68 23.456 28.68 25.076C28.68 26.264 29.544 27.056 31.272 27.488L34.368 28.244C37.356 28.964 38.832 30.332 38.832 32.96C38.832 36.308 35.952 38.432 31.776 38.432C27.636 38.432 25.008 36.236 25.008 32.888ZM45.9428 38L40.1828 20.396H43.6748L46.5908 29.54C46.9868 30.836 47.3468 32.168 47.6708 33.716C47.9588 32.168 48.4268 30.692 48.8228 29.54L51.7748 20.396H55.2308L58.1468 29.54C58.4348 30.404 59.0108 32.456 59.2988 33.716C59.5868 32.312 59.9108 31.088 60.4148 29.54L63.3668 20.396H66.8948L60.8828 38H57.6788L54.6188 28.568C54.0428 26.804 53.6828 25.436 53.5028 24.464C53.3228 25.328 52.9988 26.48 52.3508 28.604L49.2908 38H45.9428ZM71.4517 16.22C70.2277 16.22 69.2197 15.212 69.2197 13.988C69.2197 12.728 70.2277 11.756 71.4517 11.756C72.6757 11.756 73.6837 12.728 73.6837 13.988C73.6837 15.212 72.6757 16.22 71.4517 16.22ZM69.7957 38V20.396H73.1797V38H69.7957ZM76.2205 20.396H78.8125V17.588C78.8125 13.268 81.1525 11.504 84.2125 11.504C84.8605 11.504 85.6525 11.54 86.3005 11.648V14.564H84.7885C82.7365 14.564 82.1965 15.68 82.1965 17.588V20.396H90.4405V14.888H93.8245V20.396H97.2805V23.24H93.8245V38H90.4405V23.24H82.1965V38H78.8125V23.24H76.2205V20.396Z" fill="url(#paint0_linear_557_792)"/>
</g>
<defs>
<linearGradient id="paint0_linear_557_792" x1="24" y1="24.5" x2="98" y2="24.5" gradientUnits="userSpaceOnUse">
<stop stop-color="#85BF43"/>
<stop offset="1" stop-color="#1F6AFC"/>
</linearGradient>
<clipPath id="clip0_557_792">
<rect width="122" height="49" fill="white"/>
</clipPath>
</defs>
</svg>
