<svg width="122" height="49" viewBox="0 0 122 49" fill="none" xmlns="http://www.w3.org/2000/svg">
<g clip-path="url(#clip0_557_793)">
<path d="M1.008 32.888H4.248C4.248 34.688 5.616 35.768 7.848 35.768C10.224 35.768 11.592 34.796 11.592 33.176C11.592 31.988 11.016 31.268 9.18 30.8L6.084 30.08C2.952 29.324 1.476 27.776 1.476 25.184C1.476 21.944 4.212 19.892 8.1 19.892C11.952 19.892 14.472 22.052 14.544 25.4H11.304C11.232 23.636 10.044 22.52 7.992 22.52C5.868 22.52 4.68 23.456 4.68 25.076C4.68 26.264 5.544 27.056 7.272 27.488L10.368 28.244C13.356 28.964 14.832 30.332 14.832 32.96C14.832 36.308 11.952 38.432 7.776 38.432C3.636 38.432 1.008 36.236 1.008 32.888ZM21.9687 38H18.5847V20.396H21.6087L21.9327 22.7C22.8327 21.044 24.7047 19.892 27.1887 19.892C29.9247 19.892 31.8687 21.26 32.7687 23.456C33.5967 21.26 35.7207 19.892 38.4567 19.892C42.4887 19.892 44.9367 22.412 44.9367 26.48V38H41.6247V27.308C41.6247 24.536 40.0767 22.952 37.7007 22.952C35.1447 22.952 33.4527 24.752 33.4527 27.56V38H30.1047V27.272C30.1047 24.5 28.5927 22.988 26.2167 22.988C23.6607 22.988 21.9687 24.752 21.9687 27.56V38ZM48.4757 29.18C48.4757 23.744 52.3637 19.928 57.6557 19.928C62.9117 19.928 66.7997 23.744 66.7997 29.18C66.7997 34.616 62.9117 38.432 57.6557 38.432C52.3637 38.432 48.4757 34.616 48.4757 29.18ZM51.8957 29.18C51.8957 32.852 54.2357 35.408 57.6557 35.408C61.0397 35.408 63.4157 32.852 63.4157 29.18C63.4157 25.508 61.0397 22.952 57.6557 22.952C54.2357 22.952 51.8957 25.508 51.8957 29.18ZM69.3937 29.18C69.3937 23.744 73.2817 19.928 78.5737 19.928C83.8297 19.928 87.7177 23.744 87.7177 29.18C87.7177 34.616 83.8297 38.432 78.5737 38.432C73.2817 38.432 69.3937 34.616 69.3937 29.18ZM72.8137 29.18C72.8137 32.852 75.1537 35.408 78.5737 35.408C81.9577 35.408 84.3337 32.852 84.3337 29.18C84.3337 25.508 81.9577 22.952 78.5737 22.952C75.1537 22.952 72.8137 25.508 72.8137 29.18ZM96.2558 38H92.8718V23.24H89.4158V20.396H92.8718V14.888H96.2558V20.396H99.7118V23.24H96.2558V38ZM106.133 37.964H102.749V11.504H106.133V23.096C107.249 21.188 109.373 19.892 112.109 19.892C116.609 19.892 118.769 22.736 118.769 27.236V38H115.385V27.992C115.385 24.428 113.693 22.988 111.173 22.988C107.897 22.988 106.133 25.364 106.133 28.388V37.964Z" fill="url(#paint0_linear_557_793)"/>
</g>
<defs>
<linearGradient id="paint0_linear_557_793" x1="0" y1="24.5" x2="122" y2="24.5" gradientUnits="userSpaceOnUse">
<stop stop-color="#85BF43"/>
<stop offset="1" stop-color="#1F6AFC"/>
</linearGradient>
<clipPath id="clip0_557_793">
<rect width="122" height="49" fill="white"/>
</clipPath>
</defs>
</svg>
