<svg width="710" height="440" viewBox="0 0 710 440" fill="none" xmlns="http://www.w3.org/2000/svg">
<g opacity="0.26">
<path d="M582.91 -2.548C550.178 -16.2557 516.272 -27.4661 483.061 -27.3962C449.931 -27.2821 417.399 -14.5425 399.477 13.0477C378.081 46.0071 379.077 96.2336 351.177 122.537C333.111 139.553 306.75 142.822 282.213 147.503C257.616 152.2 231.753 160.343 219.703 183.094C198.106 223.888 231.501 290.286 206.038 327.986C189.214 352.837 154.921 353.006 127.392 362.923C92.5787 375.497 66.1149 406.945 57.2958 446.28C48.4766 485.616 57.5126 532.057 81.1478 569.354" stroke="#1C2226" stroke-miterlimit="10"/>
<path d="M578.021 -6.74723C545.509 -20.1831 511.76 -30.9069 478.869 -30.4619C459.018 -30.2291 439.369 -25.4372 423.001 -15.6778C412.304 -9.31841 403.021 -0.775732 395.934 9.9339C374.485 42.5093 374.61 91.8478 347.689 118.54C338.113 128.02 326.344 133.684 313.515 137.662C302.657 141.033 291.092 143.214 279.786 145.587C263.922 148.88 247.321 153.364 234.192 161.972C226.92 166.734 220.695 172.725 216.189 180.419C207.283 195.517 206.201 214.204 206.751 233.697C207.47 261.779 211.451 291.67 200.8 314.694C199.686 317.174 198.334 319.523 196.842 321.843C180.335 347.066 147.949 348.69 122.436 359.374C97.4654 369.909 77.6426 391.294 66.2501 419.004C62.9623 427.024 60.4288 435.563 58.6113 444.498C55.3995 460.606 54.7766 477.849 56.5169 495.104C59.0299 520.783 66.7104 546.43 79.1633 568.527" stroke="#23292E" stroke-miterlimit="10"/>
<path d="M573.178 -11.022C540.844 -24.1089 507.313 -34.3629 474.641 -33.6477C454.91 -33.2494 435.482 -28.3863 419.236 -18.6609C408.601 -12.3187 399.34 -3.91466 392.234 6.7332C370.712 38.8642 370.107 87.3428 344.085 114.38C334.708 124.068 323.434 130.256 310.881 134.685C300.218 138.464 288.691 140.964 277.364 143.475C261.457 147.044 244.737 151.56 231.313 159.853C223.924 164.448 217.543 170.152 212.7 177.609C203.262 192.06 201.19 209.896 200.787 228.659C200.119 255.668 202.465 284.949 191.65 308.28C190.477 310.776 189.204 313.168 187.712 315.489C171.442 341.039 141.084 344.087 117.624 355.657C94.6687 366.958 76.9668 388.616 66.9132 416.616C63.9849 424.734 61.6902 433.404 60.1114 442.471C57.2372 458.814 56.6311 476.315 58.0479 493.788C60.1359 519.778 66.5521 545.571 77.304 567.473" stroke="#2A2F37" stroke-miterlimit="10"/>
<path d="M568.353 -15.2371C536.239 -28.0526 502.864 -37.8204 470.431 -36.7743C450.899 -36.1666 431.673 -31.2928 415.549 -21.6013C405.035 -15.2928 395.816 -6.9667 388.672 3.5589C367.036 35.323 365.641 82.9591 340.498 110.28C331.399 120.221 320.54 126.888 308.183 131.724C297.716 135.911 286.267 138.654 274.897 141.44C258.948 145.284 242.049 149.849 228.39 157.811C220.823 162.257 214.245 167.751 209.147 174.815C199.117 188.636 196.156 205.529 194.761 223.639C192.663 249.653 193.336 278.203 182.438 301.884C181.264 304.381 180.011 306.833 178.539 309.214C162.525 335.153 134.133 339.64 112.748 351.959C91.7469 364.041 76.2861 385.941 67.4697 414.324C64.9007 422.541 62.9244 431.387 61.5047 440.541C58.9873 457.18 58.3786 474.877 59.5323 492.553C61.1352 518.871 66.3476 544.793 75.3798 566.439" stroke="#31363F" stroke-miterlimit="10"/>
<path d="M563.528 -19.4503C531.592 -31.9174 498.434 -41.2158 466.28 -39.9162C446.928 -39.1596 427.863 -34.1979 411.86 -24.5402C401.407 -18.2487 392.23 -10.0005 385.089 0.325822C363.34 31.7236 361.214 78.5012 336.97 106.167C328.069 116.317 317.685 123.446 305.623 128.795C295.333 133.329 283.939 136.451 272.508 139.452C256.516 143.571 239.478 148.109 225.483 155.833C217.78 160.053 211.023 165.397 205.611 172.086C194.989 185.278 191.177 201.347 188.732 218.624C185.246 243.567 184.285 271.507 173.163 295.512C172.009 298.068 170.696 300.537 169.283 302.901C153.567 329.153 127.08 335.094 107.729 348.239C88.7417 361.087 75.461 383.245 67.9419 411.994C65.7515 420.371 64.0549 429.271 62.8136 438.573C60.6337 455.448 60.0609 473.463 60.872 491.297C61.9899 517.944 66.059 543.979 73.3307 565.446" stroke="#383C47" stroke-miterlimit="10"/>
<path d="M558.686 -23.7236C526.909 -35.9031 493.967 -44.7323 462.052 -43.102C442.879 -42.1966 424.053 -37.103 408.093 -27.5231C397.701 -21.2486 388.566 -13.0781 381.447 -2.8903C359.643 28.1249 356.668 74.0777 333.363 102.012C324.679 112.431 314.771 120.023 302.904 125.779C292.809 130.72 281.453 134.162 270 137.301C254.026 141.678 236.748 146.282 222.518 153.674C214.637 157.745 207.724 162.803 202.076 169.161C190.862 181.723 186.121 196.926 182.724 213.474C177.87 237.406 175.196 264.694 163.971 288.988C162.756 291.561 161.522 294.074 160.13 296.498C144.65 323.079 120.148 330.519 102.871 344.413C85.8558 358.104 74.796 380.442 68.4945 409.515C66.6633 417.99 65.2848 427.066 64.2026 436.455C62.3601 453.566 61.804 471.839 62.3329 489.815C63.0069 516.713 65.8317 542.955 71.4035 564.227" stroke="#3F4350" stroke-miterlimit="10"/>
<path d="M553.859 -27.9358C522.301 -39.8442 489.535 -48.1271 457.838 -46.2268C438.846 -45.1726 420.18 -39.9912 404.401 -30.4616C394.131 -24.2206 385.037 -16.1278 377.88 -6.06207C355.963 24.587 352.258 69.6821 329.831 97.9011C321.365 108.589 311.932 116.643 300.261 122.807C290.342 128.095 279.102 131.9 267.587 135.254C251.571 139.907 234.174 144.543 219.667 151.681C211.669 155.586 204.559 160.434 198.596 166.417C186.851 178.333 181.12 192.686 176.771 208.505C170.47 231.382 166.222 258.046 154.834 282.647C153.619 285.22 152.325 287.749 150.952 290.233C135.729 317.203 113.192 326.081 97.9465 340.801C82.9451 355.257 74.0238 377.93 69.0603 407.293C67.5882 415.867 66.4484 425.074 65.6048 434.596C64.1189 452.002 63.5602 470.472 63.7659 488.667C63.9551 515.893 65.5767 542.266 69.4488 563.343" stroke="#464958" stroke-miterlimit="10"/>
<path d="M548.954 -32.191C517.574 -43.7512 485.024 -51.565 453.607 -49.4113C434.813 -48.1478 416.349 -42.9557 400.632 -33.4433C390.422 -27.2192 381.37 -19.2043 374.216 -9.33763C352.226 20.8683 347.77 65.2433 326.282 93.7303C318.033 104.688 309.056 113.143 297.679 119.819C287.957 125.514 276.734 129.578 265.217 133.13C249.158 138.058 231.562 142.683 216.84 149.551C208.664 153.307 201.338 157.884 195.159 163.596C182.821 174.884 176.202 188.293 170.862 203.461C163.193 225.327 157.292 251.321 145.68 276.246C144.485 278.879 143.191 281.408 141.817 283.892C126.831 311.191 106.278 321.567 93.1066 337.036C80.0771 352.334 73.3762 375.187 69.6491 404.934C68.5555 413.667 67.6952 422.929 67.0492 432.659C65.9006 450.301 65.4381 469.073 65.3013 487.426C65.066 514.964 65.4436 541.543 67.5971 562.365" stroke="#4D5060" stroke-miterlimit="10"/>
<path d="M544.13 -36.4025C512.908 -47.6753 480.574 -55.0201 449.395 -52.536C430.721 -51.1072 412.477 -45.8437 396.941 -36.3816C386.773 -30.2351 377.842 -22.2537 370.59 -12.4925C348.486 17.3476 343.32 60.926 322.691 89.6369C314.64 100.803 306.097 109.798 294.976 116.865C285.43 122.906 274.263 127.35 262.684 131.117C246.583 136.32 228.868 140.977 213.79 147.547C205.496 151.138 197.973 155.505 191.479 160.842C178.55 171.501 171.002 184.044 164.71 198.483C155.594 219.296 148.06 244.681 136.345 269.896C135.15 272.529 133.875 275.118 132.521 277.663C117.851 305.334 99.1616 317.242 88.1038 333.382C76.9858 349.539 72.5651 372.557 70.0551 402.626C69.3205 411.458 68.7784 420.895 68.2913 430.713C67.48 448.591 67.0342 467.62 66.5743 486.192C65.8543 514.059 65.0291 540.768 65.4835 561.395" stroke="#545669" stroke-miterlimit="10"/>
<path d="M539.304 -40.6136C508.32 -51.555 476.083 -58.3978 445.183 -55.6603C426.688 -54.0828 408.604 -48.7316 393.19 -39.3032C383.143 -33.1902 374.175 -25.3306 366.964 -15.6473C344.746 13.8269 338.851 56.5479 319.12 85.6039C311.286 97.039 303.218 106.496 292.312 114.03C282.961 120.48 271.891 125.226 260.251 129.207C244.107 134.685 226.272 139.375 210.899 145.631C202.428 149.072 194.689 153.169 188.02 158.159C174.499 168.188 166.022 179.866 158.779 193.576C148.296 213.379 139.109 238.096 127.231 263.617C125.975 266.266 124.72 268.916 123.427 271.444C108.994 299.444 92.3069 312.91 83.2424 329.754C74.1151 346.814 71.9141 370.012 70.6813 400.388C70.3058 409.318 70.0021 418.887 69.7536 428.836C69.2795 446.95 68.8504 466.236 68.1277 485.011C66.923 513.206 64.8952 540.045 63.6506 560.477" stroke="#5B5D71" stroke-miterlimit="10"/>
<path d="M534.462 -44.8854C503.637 -55.5394 471.615 -61.9135 441.014 -58.8621C422.717 -57.0753 404.854 -51.6528 389.482 -42.3022C379.496 -36.2061 370.569 -28.4242 363.362 -18.9398C341.09 10.1522 334.484 52.0767 315.553 81.3732C307.996 93.061 300.342 102.997 289.692 110.922C280.537 117.778 269.485 122.783 257.842 126.962C241.656 132.715 223.642 137.455 208.034 143.379C199.445 146.655 191.49 150.482 184.525 155.157C170.413 164.558 161.067 175.353 152.813 188.352C140.883 207.1 130.064 231.209 118.003 256.976C116.767 259.686 115.512 262.336 114.177 264.941C100 293.329 85.2363 308.31 78.3045 325.886C71.1483 343.788 71.1667 367.166 71.1698 397.926C71.1726 407.015 71.1676 416.7 71.0781 426.736C70.9605 445.146 70.548 464.69 69.483 483.623C67.854 512.13 64.5635 539.115 61.6202 559.353" stroke="#626379" stroke-miterlimit="10"/>
<path d="M529.638 -49.0967C498.991 -59.4028 467.186 -65.3081 436.803 -61.987C418.686 -60.0516 400.983 -54.5413 385.793 -45.2409C375.868 -39.1618 367.043 -31.4741 359.797 -22.1116C337.412 6.61474 330.116 47.8034 312.023 77.2632C304.684 89.22 297.505 99.618 287.07 108.01C278.091 115.213 267.095 120.598 255.45 124.975C239.282 130.987 221.069 135.715 205.185 141.385C196.419 144.512 188.327 148.113 181.047 152.414C166.344 161.185 156.069 171.115 146.865 183.385C133.507 201.141 121.077 224.504 108.872 250.638C107.636 253.348 106.321 256.013 105.066 258.663C91.1261 287.38 78.3835 303.979 73.4252 322.199C68.3386 341.047 70.4966 364.562 71.7573 395.567C72.119 404.755 72.4128 414.554 72.5014 424.739C72.721 443.384 72.3252 463.186 70.9974 482.321C68.884 511.156 64.3911 538.272 59.7494 558.315" stroke="#696A82" stroke-miterlimit="10"/>
<path d="M524.794 -53.3677C494.366 -63.4032 462.717 -68.8234 432.572 -65.1719C414.634 -63.0879 397.152 -57.5064 382.023 -48.2231C372.159 -42.1609 363.376 -34.5509 356.152 -25.3267C333.694 2.95693 325.647 43.4265 308.433 73.1707C301.311 85.3966 294.607 96.2567 284.367 105.056C275.584 112.666 264.684 118.354 252.898 122.901C236.687 129.188 218.295 133.965 202.116 139.321C193.172 142.299 184.865 145.63 177.349 149.599C161.994 157.759 150.851 166.806 140.696 178.348C125.892 195.051 111.83 217.806 99.5215 244.23C98.2256 246.956 96.9899 249.666 95.7542 252.375C82.1114 281.404 71.39 299.622 68.4048 318.485C65.3081 338.236 69.6657 361.87 72.162 393.26C72.9019 402.606 73.434 412.537 73.7419 422.793C74.2986 441.673 73.9195 461.733 72.2687 481.087C69.6708 510.25 63.9758 537.496 57.6359 557.344" stroke="#70708A" stroke-miterlimit="10"/>
<path d="M519.911 -57.561C489.66 -67.2487 458.227 -72.2003 428.361 -68.2957C410.623 -66.0025 393.281 -60.3938 378.334 -51.1608C368.591 -45.1321 359.849 -37.5997 352.569 -28.5579C329.997 -0.639878 321.301 39.017 304.885 69.0015C297.999 81.557 291.732 92.7578 281.786 102.069C273.198 110.086 262.335 116.092 250.548 120.838C234.294 127.399 215.783 132.209 199.309 137.251C190.248 140.063 181.743 143.184 173.992 146.823C158.028 154.294 145.975 162.536 134.87 173.35C118.699 189.043 102.985 211.13 90.4536 237.877C89.177 240.664 87.9414 243.373 86.7057 246.083C73.3191 275.5 64.5993 295.276 63.6472 314.766C62.6196 335.463 69.1162 359.234 72.8288 390.946C73.9275 400.391 74.7583 410.437 75.2442 420.84C76.1572 440.017 75.7948 460.334 73.843 479.769C70.821 509.244 63.8638 536.636 55.8067 556.23" stroke="#777792" stroke-miterlimit="10"/>
<path d="M515.087 -61.7715C484.994 -71.1722 453.797 -75.5947 424.15 -71.4205C406.53 -68.9622 389.429 -63.2216 374.584 -54.0829C364.902 -48.0711 356.202 -40.6163 348.883 -31.6963C326.258 -4.16021 316.871 34.7614 301.235 64.9256C294.626 77.7336 288.773 89.4128 279.023 99.1308C270.611 107.494 259.785 113.82 248.015 118.823C231.719 125.66 213.009 130.459 196.32 135.23C187.081 137.894 178.36 140.745 170.374 144.053C153.818 150.895 140.837 158.272 128.762 168.298C111.145 182.937 93.8603 204.4 81.1654 231.454C79.8888 234.24 78.6123 237.026 77.4562 239.78C64.3063 269.526 57.6674 290.903 58.647 311.113C59.6689 332.695 68.3042 356.603 73.2931 388.621C74.7506 398.165 75.8992 408.386 76.5441 418.877C77.7941 438.29 77.4483 458.864 75.1736 478.518C71.6673 508.321 63.5084 535.843 53.7536 555.242" stroke="#7E7E9B" stroke-miterlimit="10"/>
<path d="M510.243 -66.0409C480.389 -75.1104 449.329 -79.1085 419.919 -74.6042C402.479 -71.9974 385.598 -66.1856 370.833 -57.0034C361.212 -51.0086 352.554 -43.6314 345.258 -34.8498C322.518 -7.67907 312.442 30.5072 297.664 60.8952C291.272 73.9722 285.833 86.1297 276.339 96.238C268.123 105.008 257.393 111.636 245.542 116.794C229.204 123.905 210.375 128.736 193.391 133.193C184.016 135.631 175.098 138.273 166.816 141.267C149.67 147.48 135.82 153.975 122.735 163.29C103.673 176.877 84.7561 197.732 71.9583 225.075C70.6216 227.878 69.4245 230.708 68.2083 233.478C55.3747 263.596 50.7368 286.53 53.6888 307.384C56.8394 329.896 67.5529 353.956 73.7578 386.298C75.5932 396.001 77.0211 406.276 77.8633 416.976C79.4695 436.684 79.1212 457.455 76.584 477.311C72.5935 507.442 63.233 535.094 51.7205 554.316" stroke="#8584A3" stroke-miterlimit="10"/>
<path d="M505.419 -70.2505C475.723 -79.033 444.898 -82.5022 415.708 -77.7283C398.447 -74.973 381.726 -69.0735 367.143 -59.9415C357.643 -53.9801 349.026 -46.6806 341.673 -38.0813C318.88 -11.2925 308.113 26.1585 294.115 56.7262C288.001 70.0555 282.976 82.6913 273.757 93.2504C265.736 102.428 255.043 109.374 243.19 114.73C226.81 122.116 207.801 126.996 190.541 131.2C180.989 133.489 171.916 135.843 163.338 138.523C145.582 144.048 130.824 149.739 116.788 158.326C96.2995 170.92 75.7928 191.091 62.7717 218.757C61.4351 221.559 60.1779 224.406 59.0412 227.219C46.4443 257.666 43.9278 282.124 48.7505 303.715C54.0103 327.095 66.862 351.292 74.3018 384.016C76.4959 393.818 78.2416 404.269 79.2426 415.056C81.1858 434.999 80.9336 456.071 78.0544 476.086C73.64 506.529 63.0179 534.327 49.8082 553.354" stroke="#8C8BAC" stroke-miterlimit="10"/>
<path d="M500.595 -74.4604C471.077 -82.8954 440.449 -85.9569 411.556 -80.8695C394.494 -77.9051 377.974 -71.995 363.453 -62.8802C353.995 -56.9963 345.419 -49.7743 338.108 -41.2528C315.182 -14.8899 303.805 21.8702 290.604 52.6781C284.726 66.3368 280.157 79.3737 271.133 90.3395C263.308 99.9236 252.632 107.129 240.736 112.759C224.374 120.403 205.186 125.333 187.631 129.222C177.962 131.345 168.689 133.689 159.86 135.78C141.378 140.252 125.827 145.502 110.842 153.361C88.9678 164.886 66.7698 184.466 53.6458 212.422C52.3285 215.285 51.0715 218.131 49.9541 221.005C37.6131 251.841 37.1574 277.839 43.952 300.073C51.3206 324.322 66.269 348.732 74.9052 381.718C77.5182 391.602 79.5021 402.184 80.6812 413.119C82.9612 433.298 82.7258 454.628 79.5239 474.861C74.6255 505.632 62.8021 533.56 47.8955 552.393" stroke="#9391B4" stroke-miterlimit="10"/>
<path d="M495.752 -78.7292C466.453 -86.8937 436.001 -89.41 407.327 -84.0532C390.444 -80.9403 374.103 -74.882 359.745 -65.8779C350.347 -60.0109 341.814 -52.8666 334.505 -44.5438C311.466 -18.5462 299.519 17.4458 287.037 48.4498C281.436 62.3608 277.281 75.8758 268.472 87.3088C260.823 97.2391 250.263 104.807 238.287 110.591C221.882 118.51 202.495 123.428 184.726 127.047C174.879 129.022 165.393 130.897 156.345 132.916C137.388 137.124 120.774 141.085 104.859 148.277C81.5398 158.75 57.7713 177.706 44.4843 205.968C43.1069 208.847 41.9294 211.737 40.8121 214.611C28.7078 245.774 30.3728 273.296 39.1171 296.31C48.5943 321.428 65.62 345.991 75.4907 379.361C78.4816 389.403 80.7036 400.117 82.1017 411.122C84.7378 431.598 84.4998 453.124 81.0354 473.559C75.6339 504.597 62.689 532.7 46.0255 551.354" stroke="#9A98BC" stroke-miterlimit="10"/>
<path d="M490.867 -82.9201C461.746 -90.7373 431.49 -92.846 403.054 -87.1592C386.351 -83.8979 370.17 -77.7519 355.933 -68.7815C346.657 -62.9479 338.165 -55.8811 330.818 -47.68C307.726 -22.0641 295.089 13.193 283.386 44.3767C278.082 58.6006 274.321 72.5331 265.768 84.3562C258.314 94.6932 247.791 102.58 235.813 108.562C219.365 116.755 199.86 121.706 181.796 125.011C171.831 126.82 162.07 128.443 152.787 130.131C133.22 133.65 115.697 136.807 98.8325 143.272C74.0879 152.752 48.7106 170.964 35.2196 199.609C33.8423 202.488 32.6238 205.455 31.5259 208.389C19.7185 239.864 23.4436 268.926 34.0579 292.677C45.7036 318.646 64.8255 343.422 75.9115 377.115C79.2608 387.256 81.7813 398.085 83.3574 409.238C86.3303 429.948 86.1282 451.792 82.322 472.386C76.4968 503.736 62.2908 531.985 43.9308 550.445" stroke="#A19EC5" stroke-miterlimit="10"/>
<path d="M486.026 -87.1896C457.063 -94.7199 427.043 -96.3 398.886 -90.3604C382.321 -86.8736 366.401 -80.7335 352.225 -71.7802C343.01 -65.9636 334.56 -58.9743 327.175 -50.8949C303.969 -25.6442 290.764 8.84531 279.797 40.2856C274.77 54.7619 271.424 69.1723 263.086 81.4626C255.827 92.2062 245.341 100.412 233.341 106.53C216.833 114.938 197.167 119.999 178.868 122.973C168.727 124.634 158.809 125.97 149.232 127.344C129.074 130.235 110.684 132.511 92.8097 138.265C66.6807 146.677 39.6128 164.297 26.019 193.233C24.661 196.172 23.4427 199.139 22.3448 202.072C10.7933 233.936 16.6193 264.461 29.1636 288.931C42.8981 315.708 64.1158 340.698 76.4168 374.713C80.1439 385.013 82.9435 395.896 84.6976 407.198C88.0072 428.144 87.8219 450.245 83.7533 471.04C77.4443 502.718 62.0376 531.097 41.9815 549.363" stroke="#A8A5CD" stroke-miterlimit="10"/>
<path d="M481.203 -91.3973C452.458 -98.6574 422.614 -99.6924 394.675 -93.4835C378.289 -89.8484 362.53 -83.6206 348.535 -74.7174C339.381 -68.9177 331.033 -62.0225 323.591 -54.1253C300.312 -29.3167 286.436 4.49878 276.249 36.1187C271.518 50.9077 268.567 65.7356 260.423 78.4323C253.36 89.5826 242.951 98.0296 230.849 104.44C214.298 113.122 194.495 118.155 175.86 120.892C165.541 122.404 155.468 123.453 145.655 124.497C124.888 126.701 105.571 128.111 86.7666 133.199C59.174 140.498 30.5554 157.556 16.7987 186.797C15.3807 189.753 14.2226 192.703 13.1633 195.757C1.84832 227.95 9.79413 259.997 24.2079 285.204C40.0501 312.849 63.3633 338.052 76.9395 372.373C81.025 382.772 84.142 393.83 86.0549 405.219C89.7205 426.461 89.5326 448.758 85.1415 469.773C78.3488 501.779 61.7417 530.287 39.9897 548.359" stroke="#AFABD5" stroke-miterlimit="10"/>
<path d="M476.38 -95.6052C447.813 -102.518 418.165 -103.146 390.464 -96.6071C374.258 -92.8236 358.738 -86.4641 344.786 -77.6386C335.752 -71.8723 327.385 -65.0381 319.966 -57.2791C296.574 -32.8355 282.129 0.212404 272.66 32.0284C268.146 47.0861 265.669 62.3753 257.8 75.5226C250.932 87.0793 240.56 95.845 228.457 102.453C211.863 111.41 191.88 116.492 173.012 118.899C162.576 120.245 152.227 121.041 142.179 121.755C120.802 123.27 100.577 123.877 80.8235 128.237C51.7868 134.484 21.5385 150.935 7.6189 180.482C6.20094 183.438 5.00201 186.464 4.00293 189.502C-7.05618 222.083 2.92972 255.609 19.3523 281.579C37.3427 310.016 62.7512 335.432 77.501 370.153C81.9449 380.65 85.3 391.84 87.451 403.36C91.4532 424.837 91.3013 447.452 86.6096 468.548C79.3934 500.865 61.5258 529.52 38.0782 547.398" stroke="#B6B2DE" stroke-miterlimit="10"/>
<path d="M471.538 -99.8725C443.19 -106.515 413.717 -106.598 386.295 -99.8066C370.268 -95.8748 354.908 -89.4277 341.137 -80.6524C332.165 -74.903 323.839 -68.1463 316.443 -60.5255C292.997 -36.4633 277.923 -4.16638 269.191 27.9062C265.034 43.2601 262.891 58.9831 255.218 72.5366C248.526 84.4394 238.27 93.5676 226.085 100.329C209.51 109.544 189.348 114.675 170.185 116.768C159.572 117.966 149.067 118.475 138.744 118.936C116.758 119.762 95.6847 119.549 74.922 123.199C44.5208 128.438 12.6238 144.222 -1.45855 174.075C-2.85718 177.091 -4.05607 180.118 -5.09606 183.232C-15.8584 216.124 -3.81349 251.189 14.5381 277.879C34.6356 307.184 62.1799 332.736 78.084 367.797C82.9656 378.436 86.5587 389.757 88.8876 401.425C93.2264 423.137 93.0912 446.009 88.0771 467.323C80.3774 499.969 61.3098 528.754 36.1476 546.376" stroke="#BDB8E6" stroke-miterlimit="10"/>
<path d="M466.717 -104.08C438.546 -110.376 409.271 -110.051 382.086 -102.93C366.258 -98.7894 351.038 -92.3153 337.389 -83.5735C328.478 -77.8411 320.235 -71.239 312.8 -63.7397C289.241 -40.0424 273.618 -8.45219 265.585 23.7559C261.704 39.362 259.976 55.5628 252.558 69.5062C246.061 81.8153 235.823 91.2016 223.655 98.2212C207.038 107.711 186.677 112.83 167.299 114.653C156.569 115.686 145.868 115.986 135.23 116.072C112.654 116.272 90.6544 115.194 68.9237 118.057C37.0787 122.244 3.61262 137.404 -10.6326 167.564C-12.0311 170.579 -13.2708 173.683 -14.2505 176.781C-24.7571 210.061 -10.6319 246.528 9.60757 274.014C31.7926 304.126 61.4507 329.953 78.6293 365.319C83.8692 376.056 87.7605 387.493 90.2673 399.308C94.9619 421.316 94.8241 444.385 89.5479 465.901C81.3647 498.874 61.0972 527.789 34.24 545.218" stroke="#C4BFEE" stroke-miterlimit="10"/>
<path d="M461.814 -108.329C433.801 -114.338 404.761 -113.486 377.795 -106.095C362.146 -101.806 347.147 -95.2612 333.559 -86.5365C324.689 -80.8815 316.507 -74.2964 309.095 -66.9352C285.483 -43.6194 269.291 -12.7963 261.934 19.6848C258.35 35.6035 256.997 52.1609 249.813 66.6316C243.511 79.3472 233.309 89.0519 221.08 96.2856C204.42 106.05 183.941 111.202 164.228 112.788C153.32 113.672 142.464 113.686 131.591 113.442C108.447 112.876 85.4987 111.072 62.8194 113.208C29.5502 116.404 -5.5641 130.897 -19.9721 161.362C-21.4307 164.394 -22.5909 167.541 -23.5705 170.639C-33.8405 204.248 -17.5967 242.236 4.57118 270.442C28.8843 301.284 60.6559 327.385 79.0076 363.15C84.6057 373.986 88.7541 385.614 91.4797 397.501C96.5108 419.744 96.3898 443.07 90.7913 464.805C82.1849 498.089 60.6577 527.15 32.1056 544.384" stroke="#CBC5F7" stroke-miterlimit="10"/>
<path d="M456.992 -112.536C413.067 -121.486 366.479 -113.06 329.871 -89.4737C293.263 -65.887 267.157 -27.3483 258.467 15.5628C255.179 31.794 254.22 48.7686 247.231 63.6455C232.82 94.5053 196.096 108.452 161.403 110.657C126.77 112.845 91.6141 105.966 56.9017 108.11C22.2496 110.238 -14.4935 124.124 -29.0641 154.896C-45.9998 190.79 -26.5991 235.016 -0.259392 266.682C26.1597 298.392 60.006 324.645 79.6318 360.716C96.7578 392.21 101.43 429.814 92.3407 463.426C83.251 497.038 60.5243 526.229 30.2778 543.269" stroke="#D2CCFF" stroke-miterlimit="10"/>
<path d="M446.138 -111.97C402.637 -120.44 356.756 -111.68 320.836 -88.022C284.916 -64.3636 259.161 -26.1909 251.018 16.3643C247.846 32.9551 247.521 50.4762 241.029 65.6746C227.86 96.5168 192.621 110.779 159.344 113.914C126.126 117.031 92.0423 111.44 57.9686 114.332C23.4354 117.219 -13.6899 130.485 -29.0696 160.749C-46.8112 195.937 -29.0153 240.263 -3.1274 272.373C22.7604 304.484 57.2577 330.748 77.414 365.613C94.833 395.768 99.6647 431.808 91.6133 464.142C83.5618 496.476 62.4491 524.956 33.5098 541.965" stroke="#CDC9FE" stroke-miterlimit="10"/>
<path d="M435.245 -111.326C392.248 -119.272 346.994 -110.224 311.683 -86.5375C276.371 -62.8513 251.067 -24.94 243.53 17.2433C240.494 34.2541 240.822 52.1841 234.828 67.7037C222.943 98.4515 189.146 113.107 157.344 117.154C125.502 121.277 92.4694 116.914 59.0152 120.492C24.6202 124.197 -12.9856 136.74 -29.1545 166.557C-47.7806 200.994 -31.43 245.509 -6.1526 277.976C19.1248 310.442 54.2919 336.778 75.0193 370.36C92.7719 399.102 97.741 433.714 90.7273 464.771C83.6536 495.844 64.2144 523.599 36.5819 540.576" stroke="#C7C6FE" stroke-miterlimit="10"/>
<path d="M424.392 -110.759C381.84 -118.165 337.294 -108.784 302.571 -85.1305C267.849 -61.4773 243.074 -23.7833 236.084 18.0445C233.183 35.475 234.166 53.8138 228.628 69.7315C217.966 100.401 185.713 115.356 155.285 120.408C124.857 125.46 92.8769 122.323 60.0013 126.665C25.8052 131.172 -12.3405 143.007 -29.2378 172.361C-48.7285 206.108 -33.8417 250.751 -9.17462 283.574C15.4924 316.396 51.3694 342.728 72.7057 375.148C90.6521 402.448 95.9389 435.585 89.9218 465.442C83.8855 495.239 66.0398 522.223 39.733 539.23" stroke="#C2C3FD" stroke-miterlimit="10"/>
<path d="M413.478 -110.175C371.411 -117.118 327.452 -107.371 293.419 -83.6459C259.385 -59.9212 235.06 -22.4886 228.597 18.9234C225.832 36.7734 227.449 55.4603 222.386 71.8364C212.927 102.368 182.196 117.759 153.202 123.799C124.208 129.839 93.2794 127.929 60.9634 132.973C26.8271 138.254 -11.6389 149.454 -29.4033 178.317C-49.7578 211.375 -36.3532 256.085 -12.2771 289.324C11.859 322.547 48.2864 348.785 70.2311 380.044C88.4504 405.948 93.9344 437.643 88.9543 466.224C83.9741 494.805 67.7215 521.019 42.7401 538.055" stroke="#BDC0FD" stroke-miterlimit="10"/>
<path d="M402.649 -109.547C361.026 -115.95 317.756 -105.931 284.391 -82.1956C251.027 -58.46 227.153 -21.2887 221.217 19.7076C218.587 37.977 220.797 57.0887 216.231 73.7856C207.975 104.179 178.765 120.006 151.185 126.973C123.606 133.941 93.707 133.394 61.9916 139.063C27.9948 145.161 -10.87 155.682 -29.4407 184.038C-50.598 216.39 -38.7758 261.26 -15.1897 294.822C8.33641 328.401 45.4121 354.651 68.0248 384.733C86.4563 409.258 92.1783 439.435 88.2347 466.74C84.2911 494.045 69.6499 519.55 46.0344 536.539" stroke="#B8BDFC" stroke-miterlimit="10"/>
<path d="M391.737 -108.962C350.62 -114.843 307.978 -104.536 275.242 -80.7123C242.506 -56.8891 219.203 -20.0119 213.734 20.5853C211.239 39.2739 214.084 58.7333 210.053 75.8718C202.92 106.083 175.351 122.313 149.144 130.284C122.997 138.239 94.15 138.918 62.9944 145.289C29.1568 152.263 -10.1444 161.984 -29.5614 189.91C-51.5807 221.573 -41.2198 266.571 -18.2244 300.549C4.77096 334.527 42.3356 360.701 65.6154 389.607C84.1797 412.709 90.298 441.457 87.3302 467.503C84.3625 493.55 71.373 518.269 49.0821 535.287" stroke="#B2BAFC" stroke-miterlimit="10"/>
<path d="M380.883 -108.392C340.205 -113.734 298.247 -103.153 266.115 -79.3002C233.984 -55.4473 211.267 -18.8002 206.263 21.4019C203.904 40.5112 207.322 60.3366 203.806 77.8576C197.776 107.829 171.821 124.601 147.084 133.483C122.287 142.383 94.5257 144.407 63.9858 151.464C30.2839 159.256 -9.48035 168.315 -29.6449 195.721C-52.4688 226.681 -43.6468 271.767 -21.2392 306.164C1.16833 340.561 39.2669 366.584 63.2546 394.438C81.9537 416.119 88.3893 443.396 86.4755 468.231C84.5426 493.005 73.2213 517.002 52.1721 534.007" stroke="#ADB6FB" stroke-miterlimit="10"/>
<path d="M369.987 -107.743C329.789 -112.623 288.471 -101.693 257.004 -77.826C225.537 -53.9595 203.345 -17.5253 198.807 22.2823C196.583 41.8125 200.615 61.9271 197.592 79.9682C192.603 109.716 168.322 127.014 144.995 136.825C121.626 146.712 94.3328 148.346 64.9258 157.72C31.9534 168.203 -8.80881 174.711 -29.8412 201.63C-53.4698 231.888 -46.1669 277.122 -24.3057 311.862C-2.44456 346.602 36.1067 372.628 60.8842 399.276C79.7373 419.598 86.4903 445.406 85.5917 468.908C84.7123 492.472 74.96 515.642 55.2309 532.678" stroke="#A8B3FB" stroke-miterlimit="10"/>
<path d="M359.133 -107.172C319.374 -111.514 278.678 -100.293 247.894 -76.3529C217.03 -52.4563 195.425 -16.2515 191.332 23.1013C189.243 43.0524 193.849 63.533 191.34 81.9568C187.393 111.482 164.826 129.229 142.885 140.104C120.925 150.918 94.558 153.81 65.845 163.914C33.0652 175.395 -8.15764 181.044 -29.9974 207.46C-54.4905 237.033 -48.646 282.399 -27.3911 317.498C-6.13626 352.596 32.9083 378.549 58.4344 404.068C77.3622 422.988 84.5525 447.293 84.647 469.602C84.7415 491.91 76.656 514.359 58.2275 531.365" stroke="#A3B0FA" stroke-miterlimit="10"/>
<path d="M348.217 -106.583C308.897 -110.386 268.884 -98.8932 238.703 -74.9225C208.522 -50.9519 187.483 -15.0369 183.796 23.9382C181.902 44.2936 187.001 65.0963 185.105 84.0071C182.18 113.249 161.305 131.582 140.773 143.384C120.24 155.187 95.5135 161.176 66.7608 170.108C33.3825 180.505 -7.52873 187.318 -30.2164 213.307C-55.5135 242.179 -51.247 287.71 -30.5382 323.151C-9.82934 358.591 29.5882 384.503 56.0017 408.922C74.9441 426.456 82.5905 449.32 83.7187 470.357C84.8469 491.395 78.3675 513.138 61.2392 530.116" stroke="#9DADFA" stroke-miterlimit="10"/>
<path d="M337.384 -105.952C298.562 -109.234 259.19 -97.3907 229.593 -73.4503C199.997 -49.51 179.562 -13.7637 176.34 24.8173C174.58 45.5934 180.174 66.7182 178.891 86.116C176.946 115.152 157.863 133.978 138.678 146.723C119.554 159.453 95.9112 166.787 67.754 176.344C34.5301 187.618 -6.80313 193.694 -30.3167 219.119C-56.3983 247.35 -53.6875 292.908 -33.5654 328.768C-13.4432 364.628 26.388 390.423 53.6093 413.698C72.5855 429.906 80.6496 451.208 82.8109 470.975C84.9723 490.742 80.0795 511.72 64.2701 528.729" stroke="#98AAF9" stroke-miterlimit="10"/>
<path d="M326.468 -105.361C288.066 -108.166 249.395 -95.9894 220.482 -71.9752C191.568 -47.961 171.719 -12.4441 168.882 25.6989C167.318 46.879 173.405 68.3257 172.655 88.1663C171.592 116.892 154.321 136.27 136.623 149.987C118.924 163.703 96.306 172.399 68.7445 182.58C35.6346 194.808 -6.07915 200.069 -30.3988 224.991C-57.2835 252.521 -56.0895 298.227 -36.494 334.49C-16.8985 370.752 23.1657 396.479 51.3935 418.621C70.2639 433.477 78.9638 453.288 82.0979 471.801C85.2321 490.314 82.0044 510.571 67.4946 527.551" stroke="#93A7F9" stroke-miterlimit="10"/>
<path d="M315.633 -104.729C277.73 -107.012 239.68 -94.5464 211.37 -70.5021C183.06 -46.4578 163.856 -11.1864 161.484 26.5628C160.073 48.2239 166.635 69.9322 166.497 90.2595C166.335 118.735 150.874 138.667 134.583 153.31C118.232 167.97 96.7163 178.07 69.7309 188.815C36.7756 201.92 -5.29943 206.427 -30.545 230.879C-58.2326 257.708 -58.5548 303.562 -39.5648 340.183C-20.5748 376.805 19.8018 402.508 48.9565 423.473C67.8005 437.021 76.9775 455.255 81.1633 472.558C85.349 489.862 83.7067 509.354 70.4958 526.304" stroke="#8EA4F9" stroke-miterlimit="10"/>
<path d="M304.719 -104.139C267.255 -105.884 229.827 -93.1296 202.18 -69.0717C174.533 -45.0138 155.934 -9.91097 153.928 27.3401C152.712 49.4053 159.647 71.4684 160.222 92.1892C160.961 120.415 147.37 140.883 132.444 156.53C117.519 172.176 97.0264 183.637 70.617 194.947C37.7758 209.005 -4.67953 212.698 -30.7306 236.647C-59.2015 262.835 -61.1375 308.733 -42.6736 345.757C-24.2098 382.78 16.3588 408.492 46.5 428.265C65.1974 440.538 74.9904 457.222 80.189 473.196C85.4067 489.23 85.3491 507.957 73.4751 525" stroke="#88A1F8" stroke-miterlimit="10"/>
<path d="M293.866 -103.565C256.882 -104.85 220.094 -91.7456 193.069 -67.5972C166.045 -43.4488 148.131 -8.66824 146.47 28.2221C145.449 50.6912 152.798 73.0323 154.004 94.3001C155.563 122.233 143.841 143.237 130.341 159.87C116.841 176.504 97.3718 189.324 71.5385 201.198C38.8113 216.209 -4.00477 219.149 -30.9401 242.551C-60.2131 268.038 -63.664 314.084 -45.7452 351.45C-27.8865 388.832 12.8931 414.614 44.1211 433.101C62.7509 444.143 73.0615 459.173 79.3108 473.938C85.56 488.703 87.1056 506.726 76.5297 523.74" stroke="#839EF8" stroke-miterlimit="10"/>
<path d="M282.971 -102.915C246.425 -103.662 210.319 -90.285 183.958 -66.123C157.596 -41.961 140.287 -7.34893 139.01 29.104C138.203 52.0374 145.906 74.6728 147.783 96.4108C150.183 124.11 140.33 145.651 128.235 163.21C116.141 180.77 97.7328 195.072 72.4563 207.449C39.9226 223.457 -3.35224 225.539 -31.0922 248.438C-61.1476 273.284 -66.1318 319.418 -48.818 357.142C-31.485 394.927 9.44528 420.794 41.6995 438.012C60.1417 447.858 71.1494 461.185 78.3889 474.757C85.6092 488.27 88.7983 505.513 79.5992 522.541" stroke="#7E9BF7" stroke-miterlimit="10"/>
<path d="M272.12 -102.341C236.073 -102.568 200.588 -88.9018 174.829 -64.7097C149.07 -40.5176 132.465 -6.16713 131.533 29.9254C130.921 53.2626 138.997 76.2527 141.526 98.4004C144.766 125.867 136.84 147.927 126.151 166.413C115.481 184.959 98.1552 200.604 73.3945 213.562C41.035 230.506 -2.67932 231.791 -31.2835 254.203C-62.1402 278.349 -68.6572 324.57 -51.9097 362.774C-35.1622 400.977 5.93795 426.991 39.2995 442.787C57.6142 451.418 69.2178 463.137 77.4688 475.38C85.7197 487.624 90.5107 504.163 82.6088 521.163" stroke="#7898F7" stroke-miterlimit="10"/>
<path d="M261.268 -101.768C225.66 -101.457 190.856 -87.5184 165.719 -63.2358C140.583 -38.9533 124.622 -4.848 124.056 30.7469C123.657 54.5482 132.008 77.7887 135.348 100.434C139.347 127.624 133.348 150.204 124.083 169.676C114.818 189.148 98.5532 206.273 74.3682 219.794C42.1425 237.751 -1.96998 238.162 -31.3779 260.072C-63.0162 283.577 -71.1251 329.903 -54.9221 368.448C-38.7191 406.993 2.46901 433.307 36.918 447.621C55.0042 455.132 67.285 465.088 76.5851 476.124C85.8254 487.176 92.2585 502.935 85.6533 519.906" stroke="#7395F6" stroke-miterlimit="10"/>
<path d="M250.373 -101.116C215.184 -100.328 181.1 -85.9966 156.547 -61.7444C132.054 -37.5086 116.776 -3.52765 116.534 31.6466C116.331 55.8516 124.994 79.4632 129.045 102.502C133.824 129.475 129.811 152.558 121.91 173.033C114.008 193.508 98.8444 212.036 75.216 226.061C43.184 245.013 -1.30719 244.611 -31.6574 265.99C-64.0768 288.855 -73.717 335.268 -58.0583 374.155C-42.4595 413.058 -1.16446 439.733 34.4312 452.549C52.3681 458.984 65.3256 467.178 75.5954 476.962C85.8652 486.747 93.8797 501.742 88.5898 518.745" stroke="#6E92F6" stroke-miterlimit="10"/>
<path d="M239.523 -100.542C204.773 -99.2171 171.31 -84.5969 147.419 -60.331C123.548 -36.0048 108.974 -2.28528 109.057 32.4685C109.127 57.121 117.964 81.0761 122.806 104.552C128.303 131.325 126.276 154.912 119.778 176.313C113.281 197.713 99.2368 217.705 76.1648 232.232C44.3459 252.241 -0.622016 250.921 -31.775 271.797C-64.9752 294.022 -76.1459 340.523 -61.0911 379.768C-46.0364 419.013 -4.65606 446.185 32.0881 457.305C49.8756 462.665 63.4303 469.054 74.7292 477.57C86.028 486.087 95.6423 500.38 91.6482 517.354" stroke="#698EF5" stroke-miterlimit="10"/>
<path d="M228.612 -99.9503C194.36 -98.1052 161.518 -83.1964 138.309 -58.8565C115.1 -34.5165 101.17 -1.04196 101.597 33.3518C101.861 58.4078 111.011 82.7339 116.564 106.602C122.779 133.176 122.718 157.206 117.643 179.593C112.568 201.979 99.6435 223.434 77.0489 238.42C45.424 259.425 0.018087 257.308 -32.0163 277.638C-65.9966 299.222 -78.7162 345.75 -64.246 385.413C-49.7758 425.076 -8.29143 452.807 29.5814 462.172C47.2384 466.517 61.39 471.101 73.7174 478.35C85.9848 485.615 97.2581 499.19 94.5591 516.135" stroke="#638BF5" stroke-miterlimit="10"/>
<path d="M217.78 -99.3154C184.028 -96.95 151.806 -81.7526 129.2 -57.3826C106.593 -33.0126 93.4461 0.244592 94.1182 34.1741C94.6563 59.6775 103.919 84.3634 110.381 108.636C117.315 135.01 119.238 159.543 115.566 182.855C111.893 206.167 100.029 229.101 77.9904 244.59C46.6388 266.634 0.697109 263.616 -32.139 283.443C-66.8989 304.388 -81.1474 351.002 -67.2208 391.007C-53.2751 431.072 -11.6676 459.421 27.2946 466.911C44.8403 470.301 59.6099 472.943 72.9244 479.002C86.2389 485.061 99.1321 497.796 97.6871 514.79" stroke="#5E88F4" stroke-miterlimit="10"/>
<path d="M206.869 -98.7234C173.536 -95.8818 142.015 -80.3519 120.07 -55.9684C98.1261 -31.5848 85.6417 1.48786 86.6381 34.9971C87.4307 60.8874 96.8858 85.9769 104.138 110.687C111.808 136.921 115.755 161.881 113.485 186.119C111.234 210.416 100.489 234.812 78.9468 250.821C47.809 273.92 1.47116 270.028 -32.2449 289.309C-67.7838 309.614 -83.6201 356.331 -70.2177 396.738C-56.8153 437.144 -15.0278 466.292 24.9439 471.863C42.3781 474.299 57.7244 475.077 72.0469 479.809C86.3886 484.601 100.879 496.634 100.728 513.599" stroke="#5985F4" stroke-miterlimit="10"/>
<path d="M196.019 -98.1483C163.185 -94.7866 132.284 -78.9682 110.961 -54.4942C89.6189 -30.0805 77.8377 2.73102 79.1774 35.8806C80.2434 62.2181 89.812 87.6674 97.8938 112.737C106.282 138.773 112.192 164.176 111.362 189.459C110.513 214.682 100.886 240.54 79.8401 257.067C48.9949 281.266 2.12209 276.474 -32.4737 295.207C-68.7912 314.872 -86.1738 361.616 -73.3552 402.441C-60.5366 443.266 -18.5881 473.152 22.4141 476.668C39.7368 478.15 55.6403 477.003 71.0087 480.529C86.3771 484.056 102.445 495.326 103.626 512.384" stroke="#5482F3" stroke-miterlimit="10"/>
<path d="M185.126 -97.4949C152.73 -93.597 122.45 -77.4902 101.789 -53.0025C81.1283 -28.5148 70.0501 4.03563 71.6539 36.7816C72.9743 63.5059 82.6945 89.4356 91.6057 114.866C100.67 140.778 108.662 166.592 109.173 192.816C109.685 219.041 101.236 246.345 80.6674 263.331C50.096 288.568 2.70801 282.935 -32.7068 301.106C-69.7831 320.191 -88.7112 366.962 -76.4952 408.144C-64.2793 449.326 -21.9547 480.22 19.998 481.638C37.288 482.209 53.7481 479.139 70.0826 481.416C86.4171 483.692 104.141 494.245 106.614 511.274" stroke="#4E7FF3" stroke-miterlimit="10"/>
<path d="M174.28 -96.9201C142.363 -92.5627 112.742 -76.0468 92.6639 -51.5893C72.6046 -27.0715 62.308 5.26196 64.1568 37.5442C65.7504 64.7157 75.584 91.005 85.3841 116.779C95.1842 142.553 105.137 168.809 107.049 195.959C108.961 223.109 101.71 251.919 81.5582 269.379C51.2796 295.715 3.33835 289.122 -32.9359 306.806C-70.8089 325.191 -91.2433 372.108 -79.5698 413.632C-67.8963 455.155 -25.2557 487.073 17.5488 486.288C34.885 485.994 51.7435 480.912 69.1034 481.923C86.4633 482.934 105.782 492.786 109.548 509.787" stroke="#497CF2" stroke-miterlimit="10"/>
</g>
</svg>
