<svg width="18" height="18" viewBox="0 0 18 18" fill="none" xmlns="http://www.w3.org/2000/svg">
<path d="M13.4192 0.875H4.58083C3.59799 0.875 2.65539 1.26543 1.96041 1.96041C1.26543 2.65539 0.875 3.59799 0.875 4.58083V13.4192C0.875 14.402 1.26543 15.3446 1.96041 16.0396C2.65539 16.7346 3.59799 17.125 4.58083 17.125H13.4192C14.402 17.125 15.3446 16.7346 16.0396 16.0396C16.7346 15.3446 17.125 14.402 17.125 13.4192V4.58083C17.125 3.59799 16.7346 2.65539 16.0396 1.96041C15.3446 1.26543 14.402 0.875 13.4192 0.875ZM6.36917 13.9933C6.37178 14.0387 6.36509 14.0841 6.34951 14.1268C6.33394 14.1695 6.3098 14.2085 6.27858 14.2415C6.24736 14.2745 6.20973 14.3008 6.16798 14.3188C6.12624 14.3367 6.08127 14.3459 6.03583 14.3458H4.5525C4.46312 14.3434 4.37821 14.3062 4.31593 14.242C4.25364 14.1779 4.21892 14.0919 4.21917 14.0025V7.83333C4.21794 7.78879 4.22566 7.74446 4.24186 7.70296C4.25806 7.66145 4.28242 7.62361 4.3135 7.59168C4.34457 7.55975 4.38173 7.53438 4.42279 7.51705C4.46384 7.49973 4.50794 7.49082 4.5525 7.49083H6.03583C6.08042 7.4907 6.12458 7.49954 6.16569 7.51682C6.20679 7.5341 6.244 7.55948 6.2751 7.59143C6.3062 7.62338 6.33055 7.66127 6.34671 7.70282C6.36287 7.74438 6.37051 7.78876 6.36917 7.83333V13.9933ZM5.26667 6.19333C5.10607 6.19213 4.94728 6.15931 4.79937 6.09674C4.65146 6.03417 4.51733 5.94308 4.40462 5.82867C4.29191 5.71426 4.20284 5.57877 4.1425 5.42994C4.08215 5.28111 4.05171 5.12185 4.05292 4.96125C4.05412 4.80065 4.08694 4.64187 4.14951 4.49396C4.21208 4.34605 4.30317 4.21191 4.41758 4.0992C4.53199 3.98649 4.66748 3.89743 4.81631 3.83708C4.96514 3.77674 5.1244 3.7463 5.285 3.7475C5.60376 3.75787 5.90586 3.8924 6.12682 4.12238C6.34778 4.35237 6.47012 4.6596 6.46773 4.97852C6.46534 5.29745 6.3384 5.60281 6.11402 5.82946C5.88963 6.0561 5.58555 6.18608 5.26667 6.19167M14.2808 13.9833C14.2807 14.0676 14.2477 14.1485 14.1889 14.2088C14.1301 14.2692 14.0501 14.3043 13.9658 14.3067H12.4C12.3157 14.3041 12.2357 14.2688 12.1769 14.2083C12.1181 14.1478 12.0852 14.0668 12.085 13.9825V11.1292C12.085 10.7033 12.215 9.27667 10.955 9.27667C9.9725 9.27667 9.77833 10.2767 9.74083 10.7217V14.0475C9.74087 14.132 9.70801 14.2132 9.64921 14.2738C9.5904 14.3345 9.51028 14.3699 9.42583 14.3725H7.90667C7.86403 14.3725 7.82181 14.3641 7.78242 14.3477C7.74304 14.3314 7.70726 14.3074 7.67715 14.2773C7.64704 14.2471 7.62318 14.2112 7.60694 14.1718C7.59069 14.1324 7.58239 14.0901 7.5825 14.0475V7.80333C7.58489 7.71881 7.62021 7.63857 7.68093 7.57972C7.74164 7.52088 7.82295 7.48808 7.9075 7.48833H9.42583C9.51039 7.48808 9.59169 7.52088 9.65241 7.57972C9.71312 7.63857 9.74844 7.71881 9.75083 7.80333V8.34083C9.97253 8.01635 10.2786 7.75855 10.6361 7.59525C10.9935 7.43195 11.3887 7.36933 11.7792 7.41417C14.3083 7.41417 14.2992 9.77667 14.2992 11.12L14.2808 13.9833Z" fill="white"/>
</svg>
