<svg width="20" height="20" viewBox="0 0 20 20" fill="none" xmlns="http://www.w3.org/2000/svg">
<path d="M15.9786 1.52063H4.02051C2.64551 1.52063 1.52051 2.64563 1.52051 4.02063V15.98C1.52051 17.355 2.64551 18.48 4.02051 18.48H15.9799C17.3549 18.48 18.4799 17.355 18.4799 15.98V4.02063C18.4786 2.64563 17.3549 1.52063 15.9786 1.52063ZM15.818 10.5725H13.8055V17.8538H10.7943V10.5725H9.28801V8.0625H10.7943V6.55625C10.7943 4.50875 11.6443 3.29063 14.063 3.29063H16.0736V5.8H14.8161C13.8761 5.8 13.8136 6.15188 13.8136 6.80625L13.8055 8.0625H16.0836L15.818 10.5725Z" fill="white"/>
</svg>
