<svg width="20" height="20" viewBox="0 0 20 20" fill="none" xmlns="http://www.w3.org/2000/svg">
<path d="M11.5192 10.1949C11.5059 10.4866 11.4109 10.7683 11.2434 11.0074C11.0755 11.2545 10.8337 11.4421 10.5526 11.5433C10.2744 11.6568 9.96818 11.6824 9.67506 11.6166C9.38056 11.5538 9.11172 11.404 8.90339 11.1866C8.69696 10.9593 8.56141 10.6766 8.51339 10.3733C8.45908 10.0796 8.49601 9.77623 8.61923 9.50412C8.73923 9.23162 8.93589 8.99912 9.18756 8.83745C9.44339 8.67912 9.73923 8.59495 10.0409 8.59412C10.4384 8.61578 10.8126 8.78745 11.0892 9.07328C11.2322 9.22204 11.3439 9.39794 11.4178 9.59059C11.4916 9.78324 11.5261 9.98874 11.5192 10.1949Z" fill="white"/>
<path d="M14.3876 6.66838C14.2927 6.4342 14.1518 6.22147 13.9731 6.04281C13.7945 5.86416 13.5818 5.72322 13.3476 5.62838C13.1118 5.53637 12.8615 5.48699 12.6084 5.48254H7.47341C6.96546 5.48452 6.47889 5.68717 6.11971 6.04635C5.76054 6.40552 5.55788 6.8921 5.55591 7.40004V12.6325C5.55627 12.885 5.60669 13.1349 5.70424 13.3678C5.80179 13.6006 5.94455 13.8119 6.12424 13.9892C6.48329 14.3454 6.96764 14.5468 7.47341 14.55H12.6084C12.9866 14.5476 13.3559 14.4343 13.6703 14.2241C13.9848 14.0139 14.2307 13.7161 14.3776 13.3675C14.4749 13.1347 14.5253 12.8849 14.5259 12.6325V7.40754C14.5241 7.1549 14.4772 6.9046 14.3876 6.66838ZM12.3567 11.2025C12.2343 11.5067 12.0518 11.783 11.8201 12.015C11.5867 12.2509 11.3109 12.44 11.0076 12.5759C10.679 12.7137 10.3256 12.7828 9.96933 12.7788C9.61301 12.7748 9.2613 12.6978 8.93591 12.5525C8.41249 12.3169 7.98316 11.9126 7.71653 11.4043C7.4499 10.896 7.36137 10.3129 7.46508 9.74838C7.56525 9.25021 7.80482 8.79072 8.15591 8.42338C8.51422 8.06425 8.97005 7.81819 9.46688 7.71568C9.96372 7.61317 10.4797 7.65873 10.9509 7.84671C11.4234 8.03838 11.8259 8.37004 12.1042 8.79754C12.3855 9.20975 12.5383 9.69605 12.5434 10.195C12.5551 10.5409 12.4909 10.8842 12.3567 11.2025ZM13.2501 7.18838C13.2579 7.25332 13.2519 7.31919 13.2324 7.38163C13.2129 7.44407 13.1804 7.50167 13.137 7.55062C13.0936 7.59957 13.0403 7.63875 12.9807 7.66559C12.921 7.69243 12.8563 7.7063 12.7909 7.7063C12.7255 7.7063 12.6608 7.69243 12.6012 7.66559C12.5415 7.63875 12.4882 7.59957 12.4448 7.55062C12.4014 7.50167 12.3689 7.44407 12.3494 7.38163C12.3299 7.31919 12.3239 7.25332 12.3317 7.18838C12.322 7.1224 12.3266 7.05509 12.3451 6.99103C12.3637 6.92698 12.3959 6.86769 12.4395 6.81719C12.4831 6.76669 12.537 6.72618 12.5977 6.69841C12.6583 6.67064 12.7242 6.65626 12.7909 6.65626C12.8576 6.65626 12.9235 6.67064 12.9842 6.69841C13.0448 6.72618 13.0988 6.76669 13.1423 6.81719C13.1859 6.86769 13.2181 6.92698 13.2367 6.99103C13.2553 7.05509 13.2598 7.1224 13.2501 7.18838Z" fill="white"/>
<path d="M14.0625 1.875H5.9375C4.86006 1.875 3.82675 2.30301 3.06488 3.06488C2.30301 3.82675 1.875 4.86006 1.875 5.9375V14.0625C1.875 14.596 1.98008 15.1243 2.18424 15.6172C2.3884 16.11 2.68764 16.5579 3.06488 16.9351C3.82675 17.697 4.86006 18.125 5.9375 18.125H14.0625C14.596 18.125 15.1243 18.0199 15.6172 17.8158C16.11 17.6116 16.5579 17.3124 16.9351 16.9351C17.3124 16.5579 17.6116 16.11 17.8158 15.6172C18.0199 15.1243 18.125 14.596 18.125 14.0625V5.9375C18.125 5.404 18.0199 4.87573 17.8158 4.38285C17.6116 3.88996 17.3124 3.44212 16.9351 3.06488C16.5579 2.68764 16.11 2.3884 15.6172 2.18424C15.1243 1.98008 14.596 1.875 14.0625 1.875ZM15.785 12.5517C15.7933 12.9767 15.7125 13.4008 15.5492 13.7942C15.2195 14.5836 14.5919 15.2112 13.8025 15.5408C13.4083 15.7042 12.9858 15.7842 12.5592 15.7767H7.5625C7.13637 15.7838 6.71328 15.7039 6.31917 15.5417C5.92852 15.3773 5.57274 15.14 5.27083 14.8425C4.97192 14.5419 4.73468 14.1858 4.5725 13.7942C4.40106 13.4021 4.31254 12.9788 4.3125 12.5508V7.515C4.30559 7.08882 4.38584 6.66572 4.54833 6.27167C4.87063 5.47894 5.49258 4.84532 6.27917 4.50833C6.68778 4.34947 7.12432 4.27492 7.5625 4.28917H12.6C13.0223 4.28539 13.4411 4.36608 13.8318 4.52651C14.2225 4.68693 14.5772 4.92385 14.875 5.22333C15.1725 5.525 15.4092 5.88167 15.5733 6.27167C15.7358 6.66583 15.8167 7.08833 15.8092 7.515L15.785 12.5517Z" fill="white"/>
</svg>
